<svg width="13" height="12" viewBox="0 0 13 12" fill="none" xmlns="http://www.w3.org/2000/svg">
<path d="M6.60439 0.0113716C7.41852 0.119498 7.95916 0.28487 8.70333 0.653775C10.2489 1.41703 11.2984 2.69547 11.8263 4.45731C11.979 4.96615 11.998 5.13788 12.0044 5.98382C12.0044 6.76615 11.979 7.03329 11.8645 7.4658C11.292 9.66015 9.61923 11.3139 7.41852 11.8672C6.69979 12.0453 5.27506 12.0453 4.53089 11.8609C2.47011 11.352 0.797315 9.71103 0.173992 7.57392C0.0277023 7.07145 0.00226116 6.887 0.00226116 6.07922C-0.00409985 4.97251 0.123109 4.39371 0.568339 3.47781C0.918163 2.73364 1.34431 2.15484 1.93583 1.59512C2.97258 0.621973 4.27647 0.074976 5.74573 0.0113716C6.11464 -0.00134945 6.49626 -0.00134945 6.60439 0.0113716ZM4.44184 1.07356C3.08071 1.51879 1.85315 2.60007 1.28707 3.85307C0.949965 4.6036 0.886361 4.93434 0.886361 5.98382C0.88 6.96968 0.886361 7.02057 1.08989 7.59937C1.3952 8.47711 1.7323 9.01138 2.40014 9.67287C3.04891 10.3153 3.53866 10.6206 4.44184 10.9322C4.9952 11.1294 5.04608 11.1358 6.03195 11.1294C6.96693 11.1294 7.08778 11.1103 7.55845 10.9513C8.42983 10.6524 8.95775 10.3216 9.62559 9.64742C10.3125 8.9605 10.6051 8.48347 10.9104 7.58028C11.3429 6.29548 11.1839 4.67993 10.5097 3.48417C9.77824 2.193 8.46799 1.23257 7.01146 0.927274C6.85881 0.895472 6.33089 0.87639 5.84114 0.889111C5.09061 0.908192 4.87435 0.933634 4.44184 1.07356Z" fill="#FF8214"/>
<circle cx="6" cy="6" r="6" fill="#FF8214"/>
<path d="M8.32203 2.98823C9.00895 3.43982 9.56231 3.82145 9.54959 3.84689C9.51779 3.94866 7.06266 5.49424 6.97997 5.46244C6.86549 5.41792 6.87185 5.34795 7.0563 4.91544C7.14535 4.70555 7.21531 4.5211 7.21531 4.50201C7.21531 4.48293 6.63015 4.47021 5.91142 4.47021C4.69022 4.47021 4.60753 4.47657 4.54393 4.59106C4.50577 4.67375 4.48033 5.60237 4.48033 7.16704V9.62216H3.91425C3.36089 9.62216 3.34817 9.6158 3.31001 9.46315C3.2464 9.21509 3.27184 4.75007 3.33545 4.40025C3.41813 3.98046 3.66619 3.61155 3.97149 3.45254C4.20047 3.33806 4.3404 3.32533 5.72061 3.32533C6.92273 3.32533 7.21531 3.30625 7.21531 3.24265C7.21531 3.19177 7.13899 2.97551 7.04994 2.7529C6.89729 2.37763 6.88457 2.18046 7.01178 2.18046C7.04358 2.18046 7.6351 2.543 8.32203 2.98823Z" fill="white"/>
</svg>
