<svg width="15" height="16" viewBox="0 0 15 16" fill="none" xmlns="http://www.w3.org/2000/svg">
<g clip-path="url(#clip0_219_378)">
<path d="M10.3134 2.67261C9.28858 2.67261 8.30502 3.14967 7.66305 3.90354C7.02108 3.14967 6.03752 2.67261 5.01272 2.67261C3.19872 2.67261 1.77344 4.09789 1.77344 5.91189C1.77344 8.13817 3.77591 9.95217 6.80906 12.7085L7.66305 13.48L8.51705 12.7026C11.5502 9.95217 13.5527 8.13817 13.5527 5.91189C13.5527 4.09789 12.1274 2.67261 10.3134 2.67261ZM7.72195 11.831L7.66305 11.8899L7.60415 11.831C4.8007 9.29253 2.95136 7.61399 2.95136 5.91189C2.95136 4.73397 3.8348 3.85053 5.01272 3.85053C5.91973 3.85053 6.80317 4.4336 7.11532 5.24048H8.21667C8.52293 4.4336 9.40638 3.85053 10.3134 3.85053C11.4913 3.85053 12.3747 4.73397 12.3747 5.91189C12.3747 7.61399 10.5254 9.29253 7.72195 11.831Z" fill="#434343"/>
</g>
<defs>
<clipPath id="clip0_219_378">
<rect width="14.1351" height="14.1351" fill="white" transform="translate(0.595215 0.906219)"/>
</clipPath>
</defs>
</svg>
