<svg width="23" height="24" viewBox="0 0 23 24" fill="none" xmlns="http://www.w3.org/2000/svg">
<path d="M9.77477 9.18237C7.6904 10.4402 7.70837 13.6386 9.81071 14.8246C10.781 15.3636 12.1466 15.3636 13.117 14.8246C15.2193 13.6386 15.2373 10.4042 13.1529 9.18237C12.1466 8.5894 10.7451 8.5894 9.77477 9.18237ZM12.4521 10.9972C13.3506 11.8777 12.7216 13.423 11.4638 13.423C11.1224 13.423 10.7451 13.2613 10.4756 12.9738C9.57712 12.0933 10.206 10.548 11.4638 10.548C11.8052 10.548 12.1826 10.7097 12.4521 10.9972Z" fill="#9D9D9D"/>
<path d="M10.907 0.848158C10.7273 1.04581 10.6016 1.56691 10.5656 2.30363L10.5117 3.43566L9.16406 3.83097C6.21719 4.69347 4.15078 6.75988 3.30625 9.68879L2.91094 11.0364L1.77891 11.0903C0.592969 11.1443 0 11.4497 0 12.0247C0 12.5997 0.592969 12.9052 1.77891 12.9591L2.91094 13.013L3.30625 14.3607C4.15078 17.2896 6.21719 19.356 9.16406 20.2185L10.5117 20.6138L10.5656 21.7997C10.6195 22.8239 10.6734 23.0216 11.0508 23.2732C11.4641 23.5427 11.5359 23.5427 11.9492 23.2732C12.3266 23.0216 12.3805 22.8239 12.4344 21.7997L12.4883 20.6138L13.8359 20.2185C16.7828 19.356 18.8492 17.2896 19.6938 14.3607L20.0891 13.013L21.2211 12.9591C22.407 12.9052 23 12.5997 23 12.0247C23 11.4497 22.407 11.1443 21.2211 11.0903L20.0891 11.0364L19.6938 9.68879C18.8492 6.75988 16.7828 4.69347 13.8359 3.83097L12.4883 3.43566L12.4344 2.30363C12.3805 1.11769 12.075 0.524721 11.5 0.524721C11.3383 0.524721 11.0687 0.66847 10.907 0.848158ZM14.4289 6.00519C15.6508 6.61613 17.0164 7.99972 17.6273 9.23957C18.0047 10.0122 18.0586 10.3896 18.0586 12.0247C18.0586 13.7497 18.0227 14.0013 17.5375 14.9536C16.9086 16.1755 15.525 17.5411 14.2852 18.1521C13.5125 18.5294 13.1352 18.5833 11.5 18.5833C9.86484 18.5833 9.4875 18.5294 8.71484 18.1521C7.475 17.5411 6.09141 16.1755 5.4625 14.9536C4.97734 14.0013 4.94141 13.7497 4.94141 12.0247C4.94141 10.3896 4.99531 10.0122 5.39062 9.23957C6.18125 7.60441 7.81641 6.14894 9.43359 5.60988C9.86484 5.46613 10.7812 5.39425 11.7875 5.43019C13.1531 5.46613 13.5664 5.55597 14.4289 6.00519Z" fill="#9D9D9D"/>
</svg>
