<svg width="21" height="23" viewBox="0 0 21 23" fill="none" xmlns="http://www.w3.org/2000/svg">
<g clip-path="url(#clip0_123_3908)">
<path d="M9.557 0.873146C8.353 1.07314 7.43833 1.55884 6.52366 2.49213C4.86233 4.18731 4.44233 6.26342 5.26366 8.73952C5.45033 9.31093 5.98233 10.568 6.43033 11.5108L7.261 13.2441L6.57033 13.3489C4.685 13.6632 2.84633 14.3298 1.689 15.1107C0.559664 15.8821 0.0649974 16.6345 0.0556641 17.5963C0.0556641 18.7201 0.848997 19.7105 2.40766 20.5296C4.49833 21.6343 7.08366 22.1486 10.593 22.139C13.925 22.139 16.4917 21.6248 18.573 20.5391C20.9717 19.2915 21.6063 17.4821 20.225 15.8726C19.2917 14.7774 16.7997 13.7203 14.2797 13.3584C13.841 13.2917 13.477 13.2251 13.4583 13.2155C13.4397 13.206 13.7663 12.4918 14.177 11.6347C15.5397 8.75857 15.9597 7.28243 15.7823 5.9682C15.633 4.88252 15.3437 4.09208 14.8023 3.27306C14.0557 2.15881 12.861 1.28266 11.6663 0.996952C11.041 0.844576 10.0983 0.787436 9.557 0.873146ZM11.2183 1.77788C13.4023 2.25405 14.9517 4.20636 14.961 6.50151C14.9703 7.6348 14.5223 8.92999 13.1877 11.6442C12.161 13.7489 10.4717 16.7964 10.3317 16.8249C10.2197 16.844 8.69833 14.1584 7.737 12.2632C6.253 9.3395 5.693 7.75861 5.693 6.50151C5.693 4.27302 7.27033 2.25405 9.361 1.7874C10.117 1.61598 10.4623 1.61598 11.2183 1.77788ZM7.92366 14.4346C8.045 14.6536 8.62366 15.6631 9.221 16.6821C10.2103 18.3677 10.313 18.5106 10.425 18.3487C10.4997 18.2439 11.041 17.3297 11.6383 16.3107C12.2357 15.2917 12.777 14.3584 12.8423 14.2441C12.9823 14.006 13.001 14.006 14.6997 14.3203C16.8183 14.7203 18.6103 15.4821 19.469 16.3488C20.337 17.244 20.337 18.0058 19.4783 18.8534C16.641 21.6819 7.373 22.1962 2.79033 19.7772C1.83833 19.2725 1.101 18.5582 0.923664 17.9487C0.466331 16.3773 3.173 14.7583 7.373 14.0917C7.43653 14.0778 7.49786 14.0662 7.54732 14.0568C7.59959 14.0469 7.63861 14.0395 7.653 14.0346C7.681 14.0346 7.80233 14.206 7.92366 14.4346Z" fill="#FF8214"/>
<path d="M9.557 0.873146C8.353 1.07314 7.43833 1.55884 6.52366 2.49213C4.86233 4.18731 4.44233 6.26342 5.26366 8.73952C5.45033 9.31093 5.98233 10.568 6.43033 11.5108L7.261 13.2441L6.57033 13.3489C4.685 13.6632 2.84633 14.3298 1.689 15.1107C0.559664 15.8821 0.0649974 16.6345 0.0556641 17.5963C0.0556641 18.7201 0.848997 19.7105 2.40766 20.5296C4.49833 21.6343 7.08366 22.1486 10.593 22.139C13.925 22.139 16.4917 21.6248 18.573 20.5391C20.9717 19.2915 21.6063 17.4821 20.225 15.8726C19.2917 14.7774 16.7997 13.7203 14.2797 13.3584C13.841 13.2917 13.477 13.2251 13.4583 13.2155C13.4397 13.206 13.7663 12.4918 14.177 11.6347C15.5397 8.75857 15.9597 7.28243 15.7823 5.9682C15.633 4.88252 15.3437 4.09208 14.8023 3.27306C14.0557 2.15881 12.861 1.28266 11.6663 0.996952C11.041 0.844576 10.0983 0.787436 9.557 0.873146ZM11.2183 1.77788C13.4023 2.25405 14.9517 4.20636 14.961 6.50151C14.9703 7.6348 14.5223 8.92999 13.1877 11.6442C12.161 13.7489 10.4717 16.7964 10.3317 16.8249C10.2197 16.844 8.69833 14.1584 7.737 12.2632C6.253 9.3395 5.693 7.75861 5.693 6.50151C5.693 4.27302 7.27033 2.25405 9.361 1.7874C10.117 1.61598 10.4623 1.61598 11.2183 1.77788ZM7.92366 14.4346C8.045 14.6536 8.62366 15.6631 9.221 16.6821C10.2103 18.3677 10.313 18.5106 10.425 18.3487C10.4997 18.2439 11.041 17.3297 11.6383 16.3107C12.2357 15.2917 12.777 14.3584 12.8423 14.2441C12.9823 14.006 13.001 14.006 14.6997 14.3203C16.8183 14.7203 18.6103 15.4821 19.469 16.3488C20.337 17.244 20.337 18.0058 19.4783 18.8534C16.641 21.6819 7.373 22.1962 2.79033 19.7772C1.83833 19.2725 1.101 18.5582 0.923664 17.9487C0.466331 16.3773 3.173 14.7583 7.373 14.0917C7.43653 14.0778 7.49786 14.0662 7.54732 14.0568C7.59959 14.0469 7.63861 14.0395 7.653 14.0346C7.681 14.0346 7.80233 14.206 7.92366 14.4346Z" stroke="#FF8214"/>
<path d="M9.77033 3.84462C9.23833 3.97794 8.91167 4.17794 8.56633 4.59697C7.81033 5.49217 7.84767 6.73022 8.65033 7.64448C9.649 8.77777 11.4783 8.61587 12.2623 7.32068C12.9717 6.14929 12.477 4.49221 11.2543 3.97794C10.8343 3.797 10.181 3.73986 9.77033 3.84462ZM10.7317 4.6922C10.9183 4.73982 11.2077 4.93981 11.385 5.12076C11.6557 5.40646 11.7023 5.53027 11.7397 5.99692C11.7677 6.45404 11.7397 6.60642 11.553 6.87308C10.6943 8.16827 8.77167 7.53019 8.893 5.99692C8.93967 5.42551 9.173 5.09219 9.705 4.80649C10.1717 4.5684 10.265 4.55888 10.7317 4.6922Z" fill="#FF8214"/>
<path d="M9.33333 1.38086L12.8333 1.97608L15.1667 4.35694V7.92824H11.0833L12.25 6.7378V5.54737L10.5 3.76172L8.75 4.95216V7.33302L9.33333 7.92824H11.0833H15.1667L10.5 17.4517L8.75 14.4756L5.83333 9.11867L5.25 4.95216L6.41667 3.16651L9.33333 1.38086Z" fill="#FF8214"/>
</g>
<defs>
<clipPath id="clip0_123_3908">
<rect width="21" height="21.4278" fill="white" transform="translate(0 0.786133)"/>
</clipPath>
</defs>
</svg>
