<svg width="11" height="14" viewBox="0 0 11 14" fill="none" xmlns="http://www.w3.org/2000/svg">
<path d="M7.42799 0.665458C6.88397 0.828185 0.978368 2.6675 0.790984 2.72668L0.537109 2.81051V7.95863V13.1067L0.676136 13.1314C0.748672 13.1462 2.90056 13.1511 5.4514 13.1462L10.0997 13.1314L10.2146 13.0131C10.3234 12.8996 10.3294 12.7468 10.3294 7.95369C10.3294 3.16062 10.3234 3.00282 10.2146 2.89434C10.0997 2.78092 10.0635 2.77599 9.09631 2.7612L8.0929 2.7464V1.83907C8.0929 0.966258 8.08686 0.926808 7.95992 0.808461C7.81485 0.680251 7.58515 0.616146 7.42799 0.665458ZM7.65769 1.90318L7.66978 2.75133L4.84693 2.7464C3.03959 2.7464 2.06036 2.72668 2.13894 2.69709C2.55602 2.53929 7.47635 1.03036 7.54888 1.04023C7.62746 1.05009 7.63955 1.18816 7.65769 1.90318ZM9.87607 7.95369V12.7862L5.42117 12.801L0.960234 12.8109V7.95369V3.09651L5.42117 3.10638L9.87607 3.12117V7.95369Z" fill="#E87612"/>
<path d="M4.90577 4.00871C4.70629 4.17144 4.69421 4.1961 4.71838 4.45252C4.73047 4.63497 4.71234 4.72373 4.66398 4.72373C4.48869 4.72373 4.01116 4.9407 3.7452 5.14288C3.38252 5.41902 3.14678 5.83324 3.09238 6.27211C3.06215 6.54332 3.03193 6.6025 2.88686 6.69126C2.63903 6.83919 2.54836 7.1252 2.6753 7.3471C2.87477 7.68242 2.85664 7.68242 5.43165 7.68242C8.00666 7.68242 7.98853 7.68242 8.188 7.3471C8.31494 7.1252 8.22427 6.83919 7.97644 6.69126C7.82533 6.6025 7.80115 6.54332 7.76488 6.25732C7.71048 5.81845 7.46265 5.3993 7.09997 5.12809C6.84005 4.93577 6.36857 4.72373 6.19932 4.72373C6.15096 4.72373 6.13283 4.63497 6.14492 4.45252C6.1691 4.1961 6.15701 4.17144 5.95753 4.00871C5.77015 3.85585 5.7097 3.83612 5.43165 3.83612C5.1536 3.83612 5.09315 3.85585 4.90577 4.00871ZM5.63717 4.2602C5.69157 4.29965 5.73388 4.37855 5.73388 4.42786C5.73388 4.47717 5.69157 4.55607 5.63717 4.59552C5.45583 4.74839 5.12942 4.6399 5.12942 4.42786C5.12942 4.30951 5.28658 4.1813 5.43165 4.1813C5.4921 4.1813 5.58881 4.21582 5.63717 4.2602ZM6.33835 5.15274C6.94885 5.37464 7.30549 5.79872 7.30549 6.31156V6.59757H5.42561H3.54573L3.5699 6.25732C3.58804 5.99104 3.63035 5.87269 3.76938 5.68037C3.98698 5.3993 4.34362 5.1774 4.74861 5.08864C5.1536 4.99494 5.9938 5.02946 6.33835 5.15274ZM7.69234 6.97233C7.82533 7.01671 7.81324 7.22382 7.67421 7.28793C7.59563 7.31751 6.7796 7.33724 5.43165 7.33724C4.0837 7.33724 3.26767 7.31751 3.18909 7.28793C3.06215 7.22875 3.03193 7.01178 3.15282 6.97727C3.26163 6.93782 7.5775 6.93782 7.69234 6.97233Z" fill="#E87612"/>
<path d="M1.90334 8.55044C1.83684 8.69838 1.86102 9.72899 1.9396 9.79309C2.02423 9.86213 3.36009 9.87692 3.48703 9.81282C3.54143 9.7783 3.55957 9.61064 3.54748 9.13232L3.52934 8.4962L2.7375 8.48141C2.05445 8.47155 1.9396 8.48141 1.90334 8.55044ZM3.13644 9.16191V9.51202L2.73145 9.49722L2.32042 9.48243L2.30228 9.14711L2.28415 8.81673H2.71332H3.13644V9.16191Z" fill="#E87612"/>
<path d="M4.5687 8.507C4.49012 8.56617 4.52639 8.75848 4.6231 8.78807C4.6775 8.80286 5.65069 8.81766 6.79312 8.81766C9.0115 8.81766 9.05986 8.81273 8.96919 8.5711C8.93292 8.47248 8.89666 8.47248 6.76895 8.47248C5.57815 8.47248 4.58683 8.48727 4.5687 8.507Z" fill="#E87612"/>
<path d="M4.5687 9.54153C4.49012 9.6007 4.52639 9.79302 4.6231 9.8226C4.6775 9.8374 5.65069 9.85219 6.79312 9.85219C9.0115 9.85219 9.05986 9.84726 8.96919 9.60563C8.93292 9.50701 8.89666 9.50701 6.76895 9.50701C5.57815 9.50701 4.58683 9.5218 4.5687 9.54153Z" fill="#E87612"/>
<path d="M1.93906 10.7013C1.85443 10.7703 1.8363 11.8601 1.91488 11.9636C1.95719 12.008 2.16271 12.0228 2.74904 12.0129L3.5288 11.9981L3.54693 11.362C3.55902 10.8837 3.54089 10.716 3.48648 10.6815C3.35955 10.6174 2.02368 10.6322 1.93906 10.7013ZM3.1359 11.3324V11.6776H2.71277H2.28965V11.367C2.28965 11.1944 2.30778 11.0366 2.33196 11.0218C2.35009 11.0021 2.54352 10.9873 2.75508 10.9873H3.1359V11.3324Z" fill="#E87612"/>
<path d="M4.60161 10.6862C4.55326 10.7059 4.52908 10.7799 4.54117 10.844L4.5593 10.9624L6.74746 10.9772C8.90539 10.987 8.93562 10.987 8.97188 10.8884C9.0686 10.6468 9.0142 10.6418 6.77164 10.6418C5.62316 10.6418 4.64393 10.6616 4.60161 10.6862Z" fill="#E87612"/>
<path d="M4.60161 11.7207C4.55326 11.7405 4.52908 11.8144 4.54117 11.8785L4.5593 11.9969L6.74746 12.0117C8.90539 12.0215 8.93562 12.0215 8.97188 11.9229C9.0686 11.6813 9.0142 11.6764 6.77164 11.6764C5.62316 11.6764 4.64393 11.6961 4.60161 11.7207Z" fill="#E87612"/>
</svg>
