<svg width="32" height="32" viewBox="0 0 32 32" fill="none" xmlns="http://www.w3.org/2000/svg">
<path d="M22.6815 19.6251H21.2481L20.74 19.1434C22.5182 17.1095 23.5888 14.469 23.5888 11.5966C23.5888 5.19173 18.3085 0 11.7944 0C5.28026 0 0 5.19173 0 11.5966C0 18.0016 5.28026 23.1933 11.7944 23.1933C14.7158 23.1933 17.4013 22.1407 19.4698 20.3923L19.9598 20.8918V22.3012L29.0324 31.2039L31.736 28.5456L22.6815 19.6251ZM11.7944 19.6251C7.27624 19.6251 3.62905 16.039 3.62905 11.5966C3.62905 7.15424 7.27624 3.5682 11.7944 3.5682C16.3126 3.5682 19.9598 7.15424 19.9598 11.5966C19.9598 16.039 16.3126 19.6251 11.7944 19.6251Z" fill="#FF8214"/>
</svg>
