<svg width="14" height="10" viewBox="0 0 14 10" fill="none" xmlns="http://www.w3.org/2000/svg">
<path d="M7.15973 0.467499C4.21492 0.467499 1.70006 2.29917 0.681152 4.88471C1.70006 7.47025 4.21492 9.30192 7.15973 9.30192C10.1045 9.30192 12.6194 7.47025 13.6383 4.88471C12.6194 2.29917 10.1045 0.467499 7.15973 0.467499ZM7.15973 7.82952C5.53419 7.82952 4.21492 6.51024 4.21492 4.88471C4.21492 3.25918 5.53419 1.9399 7.15973 1.9399C8.78526 1.9399 10.1045 3.25918 10.1045 4.88471C10.1045 6.51024 8.78526 7.82952 7.15973 7.82952ZM7.15973 3.11783C6.18205 3.11783 5.39284 3.90703 5.39284 4.88471C5.39284 5.86238 6.18205 6.65159 7.15973 6.65159C8.1374 6.65159 8.92661 5.86238 8.92661 4.88471C8.92661 3.90703 8.1374 3.11783 7.15973 3.11783Z" fill="#434343"/>
</svg>
