<svg width="34" height="30" viewBox="0 0 34 30" fill="none" xmlns="http://www.w3.org/2000/svg">
<path fill-rule="evenodd" clip-rule="evenodd" d="M7.44964 18.4437C9.64138 20.5423 11.0769 22.8781 12.713 25.2807C13.0324 25.7499 12.8699 26.3397 12.352 26.5999C11.8338 26.8603 11.1536 26.6898 10.8339 26.2207C9.2826 23.9425 7.93754 21.7134 5.85619 19.7197C5.43509 19.3166 5.45016 18.7025 5.89082 18.3516C6.32933 17.9981 7.02886 18.0404 7.44964 18.4437Z" fill="#FF8417"/>
<path fill-rule="evenodd" clip-rule="evenodd" d="M10.4608 10.7654C17.3966 12.3777 24.7542 15.1767 30.8523 18.6195C31.3845 18.9205 31.5567 19.5317 31.2355 19.9826C30.9144 20.4335 30.2228 20.5575 29.6906 20.2566C23.7942 16.9279 16.6783 14.2209 9.97314 12.6641C9.3664 12.5223 8.98344 11.9822 9.11844 11.459C9.25344 10.9358 9.85402 10.6236 10.4608 10.7654Z" fill="#FF8417"/>
<path fill-rule="evenodd" clip-rule="evenodd" d="M9.19501 6.36835C13.0321 3.76319 18.0884 2.80104 22.9141 2.5234C23.5448 2.48895 24.1117 2.91015 24.1799 3.46313C24.2497 4.01924 23.7941 4.49873 23.1654 4.53616C18.7696 4.78772 14.143 5.61159 10.6479 7.98378C10.1577 8.31678 9.43382 8.22427 9.03378 7.77947C8.6334 7.33483 8.70513 6.70119 9.19501 6.36835Z" fill="#FF8417"/>
</svg>
