<svg width="296" height="116" viewBox="0 0 296 116" fill="none" xmlns="http://www.w3.org/2000/svg">
<path d="M43.8943 25.0324C46.1774 27.1053 47.319 30.2141 47.319 34.3586C47.319 37.0543 46.63 39.5983 45.2521 41.9908C43.8742 44.3832 42.0545 46.459 39.7932 48.2181C37.5786 49.9441 35.0866 51.2226 32.4404 51.9904L38.6055 60.0194C39.6992 61.1066 40.793 61.6501 41.8867 61.6501C42.7919 61.6501 43.715 61.2878 44.6558 60.563C45.6825 59.7614 46.6472 58.873 47.5405 57.9063L48.389 58.6916C48.2373 58.8936 47.6624 59.7084 46.6643 61.1361C45.7128 62.5162 44.5456 63.7109 43.2139 64.6677C41.9138 65.5931 40.6417 66.0557 39.3976 66.0557C38.3427 66.0557 37.334 65.7039 36.3715 65.0002C35.4089 64.2966 34.3626 63.1799 33.2326 61.6501L26.4445 52.7757L26.7837 51.146C29.3423 50.853 31.8167 50 34.0524 48.6403C36.3155 47.3064 38.2456 45.4122 39.6804 43.117C41.0996 40.8709 41.8487 38.2191 41.8294 35.5101C41.8294 32.4914 40.9723 30.0765 39.2582 28.2653C37.544 26.4541 35.0081 25.5489 31.6503 25.5496C29.0487 25.5496 26.3054 26.2036 23.4204 27.5117C20.5353 28.8198 18.0188 30.5188 15.8709 32.6086L14.7959 31.342C17.5478 28.6062 20.7625 26.3545 24.44 24.587C28.1175 22.8194 31.6714 21.9338 35.1017 21.9303C38.6816 21.9254 41.6125 22.9594 43.8943 25.0324ZM23.4471 63.7579L18.2443 65.9924V32.7891L23.4481 30.6781L23.4471 63.7579Z" fill="#231F20"/>
<path d="M73.1701 36.1076C74.5282 37.275 75.207 39.0056 75.2063 41.2995C75.2063 43.1508 74.2731 45.2132 72.4066 47.4867C70.4587 49.8391 68.2561 51.9366 65.8451 53.7352C63.3398 55.628 61.2001 56.9561 59.4259 57.7196C60.3674 59.3296 61.442 60.4463 62.6498 61.0697C63.8576 61.6931 65.2715 62.0052 66.8914 62.0059C68.7024 62.0059 70.5033 61.5134 72.2939 60.5282C74.0845 59.5431 75.5646 58.2656 76.7342 56.6958L77.4126 57.9624C75.5666 60.4955 73.6056 62.4373 71.5295 63.7876C69.4534 65.1379 66.9082 65.812 63.8939 65.8099C61.5937 65.8099 59.5386 65.2061 57.7289 63.9987C55.9358 62.8112 54.4714 61.1353 53.4864 59.1435C52.4684 57.1105 51.9434 54.838 51.9595 52.533C51.9595 49.5551 52.7137 46.6575 54.2221 43.84C55.6808 41.0791 57.7361 38.7299 60.2171 36.9879C62.7059 35.2379 65.3269 34.3625 68.0801 34.3618C70.1166 34.3583 71.8133 34.9402 73.1701 36.1076ZM60.6987 39.8503C59.3972 40.9762 58.379 42.425 57.6439 44.1968C56.9167 45.9254 56.5409 47.7989 56.5412 49.6937C56.5412 52.1896 57.0877 54.3227 58.1808 56.0931C59.7631 55.3289 61.4773 54.1718 63.3233 52.6216C65.0869 51.1655 66.6665 49.4718 68.0227 47.5828C69.3044 45.7716 69.9455 44.1215 69.9462 42.6326C69.9462 39.6554 68.3435 38.1665 65.138 38.1658C63.5182 38.1497 61.9454 38.7465 60.6987 39.8503Z" fill="#231F20"/>
<path d="M92.7638 33.1489C93.3472 33.6323 93.6393 34.3772 93.6399 35.3834C93.6399 36.4698 93.4422 37.4356 93.0466 38.2807C92.6945 39.0505 92.2679 39.7788 91.7738 40.4539C91.3209 41.0576 91.0193 41.4798 90.869 41.7205C91.3212 42.5255 92.1694 43.4712 93.4135 44.5576C94.2752 45.3238 95.0879 46.1507 95.8463 47.0327C96.4482 47.7582 96.9667 48.7341 97.4018 49.9606C97.837 51.1871 98.0536 52.6862 98.0516 54.458C98.0516 56.5514 97.6085 58.4632 96.7224 60.1935C95.8665 61.8906 94.5964 63.309 93.0466 64.2983C91.4808 65.3038 89.7178 65.8069 87.7578 65.8076C86.55 65.8076 85.2314 65.536 83.802 64.9928C82.3727 64.4495 81.3178 63.6755 80.6375 62.6707L84.427 57.2983C85.2666 58.4733 86.2247 59.5461 87.2841 60.4975C88.2829 61.3827 89.3668 61.8253 90.5357 61.8253C92.1562 61.8253 93.5407 61.2518 94.6892 60.1048C95.8377 58.9579 96.4129 57.5794 96.4149 55.9695C96.4149 54.6818 95.9152 53.4039 94.9157 52.136C93.9162 50.868 92.5116 49.3688 90.7018 47.6386C90.475 47.438 90.0416 47.0257 89.4014 46.4015C88.8946 45.9267 88.4218 45.4119 87.9872 44.8616L84.0315 51.0794L82.2217 49.8128L86.7461 43.1127C86.2325 41.6252 85.9648 40.0538 85.9549 38.4686C85.9549 36.739 86.3129 35.3 87.0289 34.1516C87.7449 33.0033 88.7256 32.4298 89.971 32.4312C91.2474 32.427 92.1783 32.6662 92.7638 33.1489ZM89.0305 35.2018C88.8987 35.4833 88.8327 35.9055 88.8327 36.4684C88.8184 37.1055 88.9143 37.7399 89.1156 38.3398C89.3035 38.8633 89.4353 39.2257 89.5112 39.4269C89.9252 39.1455 90.3115 38.6322 90.6702 37.887C91.0288 37.1418 91.2082 36.5085 91.2082 35.9871C91.2146 35.8262 91.1903 35.6655 91.1368 35.5149C91.0832 35.3643 91.0015 35.2269 90.8966 35.1111C90.689 34.8901 90.3781 34.7796 89.9641 34.7796C89.4736 34.7796 89.1624 34.9204 89.0305 35.2018Z" fill="#231F20"/>
<path d="M124.405 36.1076C125.763 37.275 126.442 39.0056 126.441 41.2995C126.441 43.1508 125.508 45.2132 123.642 47.4867C121.693 49.8386 119.491 51.936 117.08 53.7352C114.575 55.628 112.435 56.9561 110.66 57.7196C111.602 59.3296 112.677 60.4463 113.884 61.0697C115.091 61.6931 116.505 62.0052 118.126 62.0059C119.936 62.0059 121.737 61.5134 123.528 60.5282C125.319 59.5431 126.799 58.2656 127.968 56.6958L128.648 57.9624C126.802 60.4955 124.841 62.4373 122.765 63.7876C120.688 65.1379 118.143 65.812 115.129 65.8099C112.829 65.8099 110.773 65.2061 108.963 63.9987C107.17 62.8115 105.706 61.1355 104.722 59.1435C103.703 57.1107 103.178 54.838 103.195 52.533C103.195 49.5551 103.948 46.6575 105.456 43.84C106.915 41.0791 108.971 38.7299 111.452 36.9879C113.942 35.2379 116.562 34.3625 119.314 34.3618C121.351 34.3583 123.048 34.9402 124.405 36.1076ZM111.933 39.8503C110.632 40.9762 109.614 42.425 108.879 44.1968C108.152 45.9254 107.775 47.7988 107.775 49.6937C107.775 52.1896 108.322 54.3227 109.416 56.0931C110.998 55.3289 112.712 54.1718 114.558 52.6216C116.322 51.1652 117.901 49.4715 119.258 47.5828C120.539 45.7716 121.181 44.1215 121.181 42.6326C121.181 39.6554 119.579 38.1665 116.373 38.1658C114.753 38.1498 113.18 38.7466 111.933 39.8503V39.8503Z" fill="#231F20"/>
<path d="M145.794 42.269L145.623 42.0874C144.057 42.9782 142.306 43.4351 140.532 43.4163C139.964 43.428 139.396 43.3874 138.835 43.2949C138.291 43.1719 137.761 42.9897 137.252 42.7513L133.576 51.3862L131.481 50.3582L135.27 41.9069C134.101 40.8606 133.384 39.935 133.12 39.13L137.702 33.6415C138.276 35.1452 139.101 36.5258 140.135 37.7167C141.19 38.9439 142.359 39.5574 143.642 39.5574C145.828 39.5574 148.241 38.6719 150.882 36.9008L151.787 37.7452C149.524 40.322 147.657 42.9783 146.186 45.7141C144.715 48.4499 143.98 51.3475 143.981 54.407C143.981 56.2991 144.434 57.9091 145.339 59.2369C146.244 60.5647 147.582 61.2286 149.354 61.2286C150.485 61.2286 151.635 60.8064 152.804 59.962L153.426 60.8676C152.419 62.267 151.159 63.437 149.722 64.3085C148.342 65.172 146.772 65.6301 145.173 65.6362C143.211 65.6362 141.788 64.902 140.902 63.4335C140.017 61.9649 139.574 60.1439 139.573 57.9703C139.573 55.4751 140.186 52.708 141.411 49.6689C142.636 46.6299 144.097 44.1632 145.794 42.269Z" fill="#231F20"/>
<path d="M182.161 35.4492C182.99 36.6567 183.404 38.045 183.405 39.6141C183.395 40.549 183.291 41.48 183.094 42.3911C182.922 43.2893 182.646 44.1613 182.274 44.9876L172.432 65.7542C172.356 65.8344 172.196 65.9146 171.951 65.9959C171.741 66.0698 171.522 66.1104 171.3 66.1162C171 66.1164 170.703 66.0552 170.424 65.9357C170.141 65.8143 169.98 65.694 169.944 65.5726L160.158 42.7521C159.215 40.9015 158.234 39.9758 157.217 39.9751C156.837 39.9765 156.468 40.1148 156.171 40.3678C155.849 40.6306 155.633 40.8005 155.52 40.8807L155.011 40.2168C155.457 38.7005 156.337 37.3716 157.527 36.4171C158.752 35.4116 159.988 34.9085 161.233 34.9078C161.949 34.9078 162.581 35.4109 163.128 36.4171C163.643 37.3539 164.087 38.333 164.457 39.345C164.796 40.2907 165.023 40.9043 165.135 41.1857L173.055 59.9606L178.088 49.0343C178.125 48.9129 178.286 48.4707 178.569 47.7055C178.842 46.9964 178.986 46.2385 178.993 45.4721C178.993 42.4949 177.485 40.2615 174.468 38.7719L178.651 32.8517C180.16 33.3752 181.33 34.241 182.161 35.4492Z" fill="#231F20"/>
<path d="M206.847 36.1709C208.437 36.9622 209.71 38.3321 210.439 40.035L206.367 42.3887C205.763 41.4641 204.934 40.6292 203.878 39.8841C202.877 39.1578 201.695 38.7688 200.484 38.7674C198.561 38.7674 196.883 39.3004 195.45 40.3664C194.016 41.4324 192.923 42.8714 192.169 44.6833C191.415 46.4945 191.037 48.5066 191.038 50.7196C191.038 53.8994 191.547 56.4854 192.565 58.4774C193.583 60.4694 195.186 61.4655 197.373 61.4655C200.465 61.4655 202.595 60.1373 203.765 57.481C204.934 54.8247 205.519 51.9271 205.518 48.7881V46.0713L210.491 43.8379V59.7144C210.494 60.2464 210.63 60.7678 210.887 61.2238C211.001 61.4515 211.173 61.6404 211.382 61.7687C211.592 61.8969 211.832 61.9594 212.074 61.9489C213.167 61.9489 214.166 61.1439 215.071 59.5339L215.92 60.4997C215.461 61.8784 214.636 63.0847 213.546 63.9712C212.415 64.9169 211.284 65.3897 210.152 65.3897C208.53 65.3897 207.333 64.7459 206.56 63.4582C205.788 62.1705 205.401 60.4599 205.401 58.3265H205.288C204.399 60.3852 203.095 62.2094 201.47 63.6693C199.867 65.097 198.179 65.8112 196.408 65.8119C193.202 65.8119 190.779 64.6347 189.139 62.2803C187.5 59.9259 186.679 56.7767 186.679 52.8327C186.664 49.7581 187.342 46.7247 188.657 43.9888C189.975 41.2326 191.776 39.0291 194.058 37.3783C196.279 35.7483 198.915 34.8845 201.61 34.9033C203.423 34.8934 205.215 35.327 206.847 36.1709V36.1709Z" fill="#231F20"/>
<path d="M227.353 34.905H235.216L233.519 38.7691H227.354V60.018C227.354 60.6218 227.523 61.1143 227.862 61.4957C228.201 61.8771 228.654 62.0681 229.22 62.0688C230.011 62.0688 231.104 61.2839 232.5 59.714L233.291 60.6196C232.575 62.1501 231.718 63.2872 230.72 64.031C229.723 64.7747 228.779 65.2395 227.89 65.4252C227.004 65.6068 226.561 65.617 226.561 65.4559C226.618 65.4522 226.675 65.442 226.73 65.4252C226.842 65.4018 226.956 65.3919 227.07 65.3957C223.751 65.3957 222.092 63.3632 222.092 59.2982V38.7691H217.85L219.603 34.905H222.092V21.0202L227.353 18.8469V34.905Z" fill="#231F20"/>
<path d="M244.431 28.8053L242.565 29.5304L240.246 16.9702L246.355 14.7368L244.431 28.8053ZM246.298 60.0159C246.298 60.6196 246.44 61.1121 246.723 61.4935C247.005 61.8749 247.411 62.0659 247.938 62.0667C248.352 62.0667 248.814 61.8654 249.323 61.4629C249.831 61.0604 250.35 60.4767 250.877 59.7119L251.783 60.6175C250.915 62.3485 249.868 63.576 248.643 64.3C247.418 65.0241 246.297 65.3865 245.281 65.3872C243.923 65.3872 242.876 64.9242 242.142 63.9982C241.407 63.0722 241.04 61.5027 241.038 59.2897V37.3178L246.299 35.1445L246.298 60.0159Z" fill="#231F20"/>
<path d="M269.487 35.6294C266.658 37.5617 264.434 39.7149 262.812 42.089C261.191 44.4631 260.381 47.2601 260.381 50.4801C260.381 52.2913 260.739 54.1127 261.455 55.9443C262.143 57.7358 263.255 59.3061 264.682 60.5018C266.114 61.7093 267.829 62.313 269.825 62.313C271.446 62.313 272.889 61.9105 274.152 61.1056C275.393 60.3255 276.41 59.198 277.094 57.8452C277.796 56.4552 278.156 54.8975 278.14 53.3182C278.14 51.4268 277.603 49.4949 276.528 47.5226C275.461 45.5609 274.027 43.8552 272.314 42.5122C270.579 41.1443 268.807 40.3795 266.998 40.2176C267.855 39.3168 268.761 38.4709 269.712 37.6845C270.767 36.8 271.842 35.9348 272.936 35.089C275.538 36.0151 277.593 37.7742 279.101 40.3664C280.609 42.9587 281.363 45.8465 281.364 49.0298C281.368 51.8273 280.819 54.5942 279.752 57.1496C278.677 59.7454 277.103 61.8564 275.029 63.4825C272.955 65.1086 270.504 65.9238 267.676 65.9281C265.493 65.9416 263.346 65.3333 261.457 64.1659C259.568 62.9985 258.005 61.3142 256.929 59.287C255.835 57.2393 255.288 54.968 255.288 52.4728C255.288 48.0862 256.504 44.283 258.936 41.0631C261.368 37.8431 264.545 35.6094 268.467 34.3618L269.487 35.6294Z" fill="#231F20"/>
<path d="M43.0761 24.1511C45.3566 26.224 46.4971 29.3331 46.4978 33.4784C46.4978 36.1748 45.8095 38.7202 44.4329 41.1147C43.0563 43.5093 41.237 45.5819 38.975 47.3326C36.7605 49.0589 34.2685 50.3378 31.6223 51.1059L37.7873 59.135C38.8797 60.2207 39.9732 60.7639 41.0676 60.7646C41.9721 60.7646 42.8951 60.4026 43.8366 59.6785C44.8656 58.8771 45.8329 57.9891 46.7292 57.0229L47.5777 57.8082C47.4267 58.0095 46.8515 58.8243 45.852 60.2527C44.9008 61.633 43.7336 62.8278 42.4016 63.7843C41.1009 64.7097 39.8284 65.1723 38.5844 65.1723C37.5295 65.1723 36.5208 64.8205 35.5582 64.1168C34.5957 63.4132 33.5474 62.2961 32.4134 60.7657L25.6264 51.8912L25.9616 50.2615C28.5201 49.9692 30.9946 49.1165 33.2303 47.7569C35.4934 46.4226 37.4235 44.5281 38.8583 42.2325C40.2771 39.9867 41.0263 37.3353 41.0073 34.6267C41.0073 31.608 40.1502 29.1931 38.436 27.3819C36.7219 25.5707 34.1859 24.6651 30.8282 24.6651C28.2259 24.6651 25.4826 25.3191 22.5983 26.6272C19.7139 27.9353 17.1967 29.6357 15.0468 31.7284L13.9728 30.4618C16.7253 27.7253 19.9397 25.4715 23.6159 23.7004C27.2921 21.9293 30.8463 21.0441 34.2785 21.0448C37.8618 21.0441 40.7943 22.0795 43.0761 24.1511ZM22.6279 62.8787L17.4251 65.1121V31.9099L22.6279 29.799V62.8787Z" fill="black"/>
<path d="M72.3441 35.2359C73.7009 36.404 74.3796 38.1346 74.3803 40.4278C74.3803 42.2806 73.447 44.3433 71.5806 46.6161C69.6324 48.9669 67.4306 51.0635 65.021 52.8625C62.5157 54.7539 60.3756 56.0817 58.6008 56.8458C59.5436 58.4565 60.6183 59.5735 61.8248 60.197C63.0313 60.8204 64.4454 61.1321 66.0673 61.1321C67.877 61.1321 69.6776 60.6396 71.4688 59.6545C73.2601 58.6693 74.7402 57.3915 75.9092 55.821L76.5876 57.0875C74.7415 59.6207 72.7808 61.5628 70.7054 62.9138C68.6299 64.2648 66.0848 64.9389 63.0698 64.9361C60.7689 64.9361 58.7136 64.3323 56.9038 63.1249C55.111 61.9374 53.6469 60.2615 52.6623 58.2697C51.6435 56.237 51.1182 53.9643 51.1344 51.6592C51.1344 48.6806 51.8886 45.7826 53.3971 42.9652C54.8561 40.2046 56.9118 37.8557 59.393 36.1141C61.8824 34.3634 64.5031 33.4881 67.255 33.4881C69.2902 33.4838 70.9866 34.0665 72.3441 35.2359ZM59.8716 38.9797C58.5708 40.1056 57.5529 41.5544 56.8178 43.3262C56.0914 45.0522 55.7153 46.9226 55.7141 48.8147C55.7141 51.3112 56.261 53.4444 57.3548 55.2141C58.9371 54.4499 60.6512 53.2927 62.4972 51.7426C64.2607 50.2858 65.8403 48.5918 67.1967 46.7027C68.4783 44.8915 69.1195 43.2414 69.1201 41.7525C69.1201 38.7739 67.5174 37.2846 64.3119 37.2846C62.6911 37.2705 61.118 37.8696 59.8716 38.9755V38.9797Z" fill="black"/>
<path d="M91.9395 32.2735C92.5243 32.7555 92.8167 33.4999 92.8167 34.5069C92.8167 35.594 92.6189 36.5601 92.2233 37.4052C91.8717 38.1753 91.4451 38.9037 90.9506 39.5784C90.4983 40.1815 90.1967 40.6037 90.0457 40.845C90.4986 41.6507 91.3472 42.5964 92.5912 43.6822C93.4531 44.4478 94.2656 45.2747 95.023 46.1572C95.6263 46.8813 96.1448 47.8573 96.5786 49.0851C97.0124 50.313 97.2293 51.8122 97.2293 53.5826C97.2293 55.6752 96.7863 57.5867 95.9002 59.317C95.044 61.0145 93.7735 62.4332 92.2233 63.4228C90.6582 64.4276 88.8953 64.9307 86.9345 64.9321C85.728 64.9321 84.4095 64.6602 82.9788 64.1162C81.5481 63.5723 80.4933 62.7983 79.8142 61.7942L83.6038 56.4207C84.4413 57.594 85.3967 58.6657 86.4529 59.6167C87.4517 60.5033 88.5359 60.9463 89.7055 60.9456C91.3261 60.9456 92.7106 60.3721 93.859 59.2251C95.0075 58.0782 95.5824 56.6997 95.5837 55.0898C95.5837 53.8021 95.0843 52.5243 94.0855 51.2563C93.0867 49.9883 91.6821 48.4892 89.8717 46.7589C89.6455 46.5569 89.2117 46.1442 88.5702 45.5208C88.0637 45.046 87.591 44.5316 87.156 43.9819L83.2003 50.1997L81.3896 48.9332L85.9149 42.2319C85.4007 40.7446 85.133 39.1731 85.1238 37.5878C85.1238 35.8575 85.4821 34.4189 86.1988 33.272C86.9154 32.125 87.8958 31.5515 89.1399 31.5515C90.4215 31.5501 91.3547 31.7908 91.9395 32.2735ZM88.2063 34.3264C88.0744 34.6078 88.0085 35.03 88.0085 35.593C87.9946 36.23 88.0905 36.8643 88.2913 37.4643C88.4792 37.9878 88.6111 38.3499 88.6869 38.5504C89.1023 38.2689 89.489 37.756 89.8469 37.0115C90.2049 36.2671 90.3839 35.6338 90.3839 35.1117C90.3905 34.951 90.3663 34.7905 90.3129 34.6401C90.2595 34.4897 90.178 34.3524 90.0734 34.2367C89.8657 34.0161 89.5542 33.9042 89.1399 33.9042C88.6493 33.9035 88.3382 34.0442 88.2063 34.3264Z" fill="black"/>
<path d="M123.589 35.2338C124.947 36.4019 125.626 38.1325 125.626 40.4257C125.626 42.2785 124.692 44.3412 122.826 46.614C120.878 48.9659 118.676 51.0633 116.265 52.8625C113.756 54.7539 111.616 56.0817 109.845 56.8458C110.787 58.4565 111.862 59.5736 113.069 60.197C114.276 60.8204 115.69 61.1321 117.312 61.1321C119.121 61.1321 120.922 60.6396 122.713 59.6545C124.504 58.6694 125.984 57.3915 127.153 55.821L127.832 57.0875C125.986 59.6207 124.025 61.5628 121.95 62.9138C119.874 64.2648 117.329 64.9389 114.313 64.9361C112.013 64.9361 109.958 64.3324 108.148 63.1249C106.355 61.9371 104.891 60.2613 103.906 58.2697C102.888 56.2368 102.363 53.9642 102.379 51.6592C102.379 48.6807 103.133 45.7827 104.641 42.9652C106.1 40.2046 108.156 37.8557 110.637 36.1141C113.125 34.3634 115.746 33.4881 118.499 33.4881C120.535 33.4824 122.232 34.0644 123.589 35.2338ZM111.118 38.9776C109.816 40.1035 108.798 41.5523 108.063 43.3241C107.337 45.0503 106.962 46.9206 106.96 48.8126C106.96 51.3092 107.507 53.4423 108.601 55.212C110.183 54.4478 111.897 53.2906 113.743 51.7405C115.506 50.2834 117.084 48.5894 118.439 46.7006C119.719 44.8894 120.36 43.2393 120.361 41.7504C120.361 38.7718 118.759 37.2825 115.554 37.2825C113.935 37.2692 112.363 37.8682 111.118 38.9734V38.9776Z" fill="black"/>
<path d="M144.969 41.3895L144.798 41.209C143.232 42.0995 141.482 42.5561 139.707 42.5368C139.14 42.5487 138.572 42.5085 138.011 42.4164C137.468 42.2927 136.938 42.1106 136.429 41.8729L132.752 50.5056L130.658 49.485L134.444 41.0274C133.277 39.9811 132.562 39.0554 132.298 38.2505L136.88 32.762C137.454 34.2658 138.278 35.6464 139.312 36.8372C140.367 38.0657 141.536 38.6797 142.819 38.679C145.005 38.679 147.418 37.7934 150.059 36.0223L150.963 36.8667C148.702 39.4421 146.836 42.0984 145.364 44.8356C143.893 47.5728 143.157 50.4705 143.158 53.5285C143.158 55.42 143.61 57.0296 144.516 58.3574C145.421 59.6851 146.76 60.3494 148.532 60.3501C149.663 60.3501 150.813 59.9279 151.982 59.0835L152.604 59.9891C151.596 61.3878 150.337 62.5576 148.9 63.43C147.518 64.2943 145.947 64.7524 144.346 64.7578C142.385 64.7578 140.961 64.0232 140.075 62.5539C139.189 61.0847 138.746 59.2616 138.746 57.0844C138.746 54.5893 139.359 51.8225 140.585 48.7841C141.81 45.7458 143.272 43.2809 144.969 41.3895Z" fill="black"/>
<path d="M181.335 34.5675C182.164 35.7749 182.579 37.1636 182.579 38.7335C182.569 39.6683 182.465 40.5994 182.268 41.5104C182.095 42.4081 181.82 43.2797 181.448 44.1058L171.606 64.8724C171.53 64.9526 171.37 65.0332 171.126 65.1141C170.915 65.1882 170.696 65.229 170.475 65.2355C170.175 65.2356 169.877 65.174 169.599 65.054C169.315 64.9336 169.155 64.8123 169.117 64.6919L159.327 41.8724C158.385 40.0225 157.404 39.0969 156.386 39.0955C156.005 39.0963 155.636 39.2347 155.339 39.4881C155.019 39.7499 154.802 39.9209 154.689 40.0011L154.18 39.3372C154.626 37.8205 155.506 36.4913 156.697 35.5375C157.923 34.5326 159.158 34.0299 160.402 34.0292C161.118 34.0292 161.749 34.5319 162.296 35.5375C162.812 36.4743 163.256 37.4533 163.626 38.4654C163.968 39.4083 164.196 40.0204 164.308 40.3019L172.226 59.0768L177.263 48.1504C177.301 48.0301 177.461 47.5875 177.745 46.8227C178.017 46.1135 178.161 45.3557 178.169 44.5893C178.169 41.6107 176.66 39.3769 173.643 37.888L177.829 31.972C179.336 32.4956 180.505 33.3607 181.335 34.5675Z" fill="black"/>
<path d="M206.024 35.2917C207.614 36.0823 208.887 37.452 209.616 39.1548L205.545 41.5096C204.941 40.5836 204.111 39.7483 203.056 39.0039C202.055 38.2776 200.873 37.8886 199.662 37.8872C197.74 37.8872 196.062 38.4205 194.628 39.4873C193.195 40.554 192.102 41.9926 191.348 43.8031C190.594 45.6143 190.217 47.6268 190.217 49.8405C190.217 53.0196 190.726 55.6052 191.744 57.5972C192.762 59.5892 194.362 60.5856 196.546 60.5863C199.637 60.5863 201.768 59.2582 202.937 56.6019C204.107 53.9456 204.692 51.0479 204.691 47.9089V45.1921L209.668 42.9577V58.8353C209.67 59.3672 209.807 59.8887 210.064 60.3446C210.178 60.5722 210.35 60.7608 210.559 60.8889C210.769 61.017 211.009 61.0793 211.25 61.0687C212.344 61.0687 213.343 60.2637 214.248 58.6537L215.096 59.6195C214.638 60.9979 213.813 62.2041 212.723 63.091C211.592 64.0381 210.46 64.5109 209.329 64.5095C207.707 64.5095 206.51 63.8657 205.737 62.578C204.964 61.2903 204.578 59.5797 204.577 57.4463H204.464C203.521 59.5804 202.248 61.3614 200.646 62.7891C199.044 64.2168 197.357 64.9314 195.584 64.9328C192.379 64.9328 189.956 63.7556 188.316 61.4011C186.676 59.0467 185.856 55.8975 185.856 51.9535C185.84 48.8785 186.518 45.8447 187.833 43.1086C189.152 40.3524 190.953 38.1493 193.235 36.4992C195.455 34.869 198.091 34.0051 200.786 34.0241C202.599 34.0143 204.391 34.4479 206.024 35.2917V35.2917Z" fill="black"/>
<path d="M226.529 34.0232H234.391L232.694 37.8863H226.529V59.1363C226.529 59.74 226.699 60.2326 227.039 60.614C227.378 60.9953 227.831 61.1867 228.396 61.1881C229.188 61.1881 230.281 60.4032 231.677 58.8334L232.468 59.739C231.751 61.2687 230.894 62.4055 229.897 63.1492C228.899 63.893 227.957 64.356 227.069 64.5382C226.182 64.7191 225.739 64.7289 225.739 64.5678C225.797 64.5647 225.854 64.5548 225.909 64.5382C226.021 64.5138 226.135 64.5035 226.249 64.5076C222.93 64.5076 221.271 62.4755 221.271 58.4112V37.8863H217.029L218.782 34.0232H221.271V20.1405L226.531 17.9673L226.529 34.0232Z" fill="black"/>
<path d="M243.611 27.9277L241.742 28.6518L239.423 16.0916L245.532 13.8582L243.611 27.9277ZM245.477 59.1383C245.477 59.742 245.619 60.2345 245.901 60.6159C246.184 60.9991 246.594 61.1901 247.118 61.1901C247.533 61.1901 247.994 60.9889 248.502 60.5864C249.011 60.1839 249.529 59.6002 250.058 58.8353L250.963 59.7409C250.096 61.4719 249.05 62.6994 247.824 63.4235C246.598 64.1476 245.478 64.5096 244.462 64.5096C243.104 64.5096 242.057 64.0469 241.322 63.1216C240.586 62.1963 240.218 60.6268 240.219 58.4131V36.4391L245.479 34.2659L245.477 59.1383Z" fill="black"/>
<path d="M268.67 34.7498C265.842 36.6813 263.617 38.8345 261.996 41.2093C260.375 43.5842 259.564 46.3812 259.563 49.6004C259.563 51.4116 259.921 53.2327 260.638 55.0636C261.325 56.8548 262.436 58.4252 263.862 59.6211C265.295 60.8286 267.009 61.4323 269.004 61.4323C270.626 61.4323 272.068 61.0299 273.331 60.2249C274.572 59.445 275.589 58.3179 276.273 56.9656C276.976 55.5752 277.336 54.0171 277.319 52.4375C277.319 50.5461 276.782 48.6142 275.707 46.6419C274.64 44.6806 273.206 42.975 271.494 41.6315C269.758 40.2636 267.986 39.4991 266.176 39.338C267.033 38.4369 267.94 37.591 268.892 36.8048C269.947 35.9196 271.021 35.0541 272.116 34.2083C274.718 35.1351 276.773 36.8942 278.281 39.4857C279.788 42.0773 280.543 44.9647 280.543 48.1481C280.547 50.9456 279.998 53.7124 278.931 56.2679C277.857 58.863 276.282 60.976 274.208 62.6071C272.134 64.2382 269.686 65.054 266.863 65.0548C264.681 65.0691 262.534 64.4612 260.644 63.2939C258.755 62.1266 257.192 60.4422 256.117 58.4147C255.023 56.3615 254.476 54.0873 254.477 51.5921C254.477 47.2062 255.693 43.403 258.125 40.1824C260.557 36.9617 263.734 34.7283 267.655 33.4822L268.67 34.7498Z" fill="black"/>
<path d="M43.0741 25.912C45.3546 27.9849 46.4952 31.094 46.4958 35.2393C46.4958 37.9357 45.8075 40.4811 44.4309 42.8756C43.0544 45.2702 41.235 47.3428 38.973 49.0935C36.7584 50.8191 34.2664 52.0972 31.6203 52.8647L37.7853 60.8937C38.8778 61.9795 39.9712 62.5227 41.0656 62.5234C41.9701 62.5234 42.8932 62.1614 43.8346 61.4373C44.8636 60.6362 45.8309 59.7485 46.7273 58.7828L47.5758 59.567C47.4248 59.7697 46.8495 60.5848 45.8501 62.0126C44.8989 63.3929 43.7316 64.5876 42.3997 65.5442C41.0989 66.4695 39.8265 66.9322 38.5824 66.9322C37.5275 66.9322 36.5188 66.5803 35.5563 65.8767C34.5937 65.173 33.5471 64.0563 32.4164 62.5266L25.6293 53.6521L25.9596 52.0203C28.5183 51.728 30.9929 50.875 33.2283 49.5146C35.4914 48.1808 37.4215 46.2866 38.8563 43.9913C40.2752 41.7451 41.0243 39.0934 41.0053 36.3844C41.0053 33.3665 40.1482 30.9519 38.4341 29.1407C36.7199 27.3295 34.1846 26.4242 30.8282 26.4249C28.2259 26.4249 25.4826 27.079 22.5983 28.3871C19.7139 29.6952 17.1967 31.3955 15.0468 33.4882L13.9728 32.2216C16.7253 29.4844 19.9397 27.2306 23.6159 25.4602C27.2921 23.6898 30.8463 22.8043 34.2786 22.8036C37.8605 22.8029 40.7923 23.839 43.0741 25.912ZM22.6259 64.6386L17.4232 66.872V33.6698L22.6259 31.5588V64.6386Z" fill="black"/>
<path d="M72.3435 36.9905C73.7003 38.1585 74.379 39.8892 74.3797 42.1824C74.3797 44.0337 73.4465 46.0964 71.58 48.3706C69.6321 50.7221 67.4303 52.8191 65.0204 54.618C62.5151 56.5102 60.3751 57.8383 58.6003 58.6025C59.5431 60.2131 60.6177 61.3302 61.8242 61.9536C63.0307 62.5771 64.4449 62.8888 66.0667 62.8888C67.8765 62.8888 69.677 62.3962 71.4683 61.4111C73.2596 60.426 74.7397 59.1482 75.9086 57.5776L76.587 58.8442C74.741 61.3773 72.7803 63.3191 70.7048 64.6694C68.6294 66.0197 66.0835 66.6941 63.0673 66.6927C60.7664 66.6927 58.711 66.089 56.9013 64.8815C55.1073 63.6929 53.6428 62.015 52.6588 60.021C51.64 57.9888 51.1147 55.7164 51.1309 53.4116C51.1309 50.4331 51.8851 47.5351 53.3935 44.7176C54.8526 41.957 56.9082 39.6081 59.3894 37.8665C61.8789 36.1151 64.4996 35.2398 67.2515 35.2405C69.2887 35.2398 70.986 35.8231 72.3435 36.9905ZM59.8711 40.7332C58.5703 41.859 57.5523 43.3082 56.8172 45.0807C56.0908 46.8067 55.7147 48.6771 55.7136 50.5692C55.7136 53.0651 56.2605 55.1982 57.3542 56.9686C58.9365 56.2044 60.6507 55.0473 62.4967 53.4971C64.2599 52.0417 65.8394 50.3491 67.1961 48.4614C68.4777 46.6502 69.1189 44.9998 69.1196 43.5102C69.1196 40.5323 67.5168 39.0434 64.3114 39.0434C62.6907 39.0289 61.1175 39.6276 59.8711 40.7332V40.7332Z" fill="black"/>
<path d="M91.9405 34.0276C92.5253 34.5096 92.8177 35.2541 92.8177 36.261C92.8177 37.3482 92.6199 38.3139 92.2243 39.1583C91.873 39.9285 91.4463 40.657 90.9516 41.3315C90.4993 41.9353 90.1977 42.3575 90.0467 42.5981C90.4996 43.4031 91.3481 44.3488 92.5922 45.4352C93.4544 46.2006 94.2668 47.0275 95.024 47.9103C95.6273 48.6344 96.1458 49.6104 96.5796 50.8382C97.0134 52.0661 97.2303 53.5652 97.2303 55.3356C97.2303 57.4283 96.7873 59.3398 95.9012 61.0701C95.045 62.7675 93.7745 64.1862 92.2243 65.1759C90.6585 66.1835 88.8953 66.6873 86.9345 66.6873C85.728 66.6873 84.4095 66.4154 82.9788 65.8714C81.5481 65.3275 80.4933 64.5535 79.8142 63.5494L83.6038 58.177C84.4433 59.3517 85.401 60.4245 86.4598 61.3761C87.4587 62.2613 88.5429 62.7043 89.7124 62.705C91.333 62.705 92.7175 62.1315 93.866 60.9846C95.0144 59.8376 95.5893 58.4592 95.5907 56.8492C95.5907 55.5615 95.0913 54.2837 94.0924 53.0157C93.0936 51.7477 91.689 50.2486 89.8786 48.5183C89.6524 48.3163 89.2186 47.9037 88.5771 47.2802C88.0709 46.8051 87.5982 46.2908 87.163 45.7413L83.2072 51.9592L81.3965 50.6926L85.9219 43.9913C85.4076 42.504 85.1399 40.9325 85.1307 39.3472C85.1307 37.6176 85.489 36.1787 86.2057 35.0303C86.9223 33.882 87.9027 33.3085 89.1468 33.3099C90.4245 33.305 91.3557 33.5442 91.9405 34.0276ZM88.2073 36.0784C88.0754 36.3599 88.0095 36.7821 88.0095 37.345C87.9957 37.982 88.0916 38.6163 88.2923 39.2163C88.4802 39.7399 88.6121 40.1019 88.6879 40.3024C89.1033 40.021 89.4899 39.508 89.8479 38.7636C90.2059 38.0191 90.3849 37.3858 90.3849 36.8637C90.3914 36.703 90.3673 36.5426 90.3139 36.3921C90.2605 36.2417 90.179 36.1045 90.0744 35.9887C89.8667 35.767 89.5555 35.6562 89.1408 35.6562C88.6503 35.6562 88.3391 35.7969 88.2073 36.0784Z" fill="black"/>
<path d="M123.589 36.9853C124.947 38.1534 125.626 39.884 125.626 42.1772C125.626 44.0285 124.692 46.0913 122.826 48.3655C120.878 50.7173 118.676 52.8144 116.265 54.6129C113.756 56.505 111.616 57.8331 109.845 58.5973C110.787 60.208 111.862 61.325 113.069 61.9484C114.276 62.5719 115.69 62.8836 117.312 62.8836C119.121 62.8836 120.922 62.3911 122.713 61.4059C124.504 60.4208 125.984 59.143 127.153 57.5724L127.832 58.839C125.986 61.3722 124.025 63.3139 121.95 64.6642C119.874 66.0145 117.329 66.689 114.313 66.6876C112.013 66.6876 109.958 66.0838 108.148 64.8764C106.354 63.6873 104.89 62.0096 103.906 60.0159C102.888 57.9833 102.363 55.7111 102.379 53.4065C102.379 50.4279 103.133 47.5299 104.641 44.7125C106.1 41.9518 108.156 39.603 110.637 37.8613C113.126 36.11 115.747 35.2343 118.499 35.2343C120.535 35.2343 122.232 35.8179 123.589 36.9853ZM111.118 40.728C109.816 41.8539 108.798 43.303 108.063 45.0755C107.337 46.8017 106.962 48.6721 106.96 50.564C106.96 53.0599 107.507 55.193 108.601 56.9634C110.183 56.1993 111.897 55.0421 113.743 53.4919C115.506 52.0349 117.084 50.3409 118.439 48.452C119.719 46.6408 120.36 44.9904 120.361 43.5008C120.361 40.5229 118.759 39.034 115.554 39.034C113.934 39.0214 112.363 39.6216 111.118 40.728V40.728Z" fill="black"/>
<path d="M144.967 43.1472L144.796 42.9667C143.23 43.8572 141.48 44.3138 139.705 44.2945C139.138 44.3059 138.571 44.2656 138.009 44.1742C137.466 44.0504 136.936 43.8683 136.427 43.6306L132.75 52.2634L130.658 51.2364L134.442 42.7851C133.273 41.7388 132.557 40.8132 132.293 40.0082L136.875 34.5144C137.449 36.0181 138.273 37.3987 139.307 38.5896C140.362 39.8182 141.531 40.4318 142.814 40.4304C145 40.4304 147.413 39.5452 150.054 37.7748L150.959 38.6192C148.697 41.1945 146.831 43.8505 145.359 46.587C143.888 49.3235 143.152 52.2215 143.153 55.281C143.153 57.1724 143.605 58.782 144.511 60.1098C145.416 61.4376 146.755 62.1018 148.527 62.1025C149.658 62.1025 150.808 61.6804 151.977 60.836L152.599 61.7405C151.592 63.1398 150.332 64.31 148.895 65.1824C147.513 66.0467 145.942 66.5049 144.341 66.5102C142.38 66.5102 140.956 65.7756 140.07 64.3064C139.184 62.8372 138.741 61.0161 138.741 58.8432C138.741 56.3481 139.354 53.5813 140.58 50.5429C141.805 47.5045 143.268 45.0393 144.967 43.1472Z" fill="black"/>
<path d="M181.335 36.3263C182.164 37.5337 182.579 38.9224 182.579 40.4923C182.569 41.4271 182.465 42.3581 182.268 43.2692C182.095 44.1669 181.82 45.0385 181.448 45.8646L171.606 66.6312C171.53 66.7114 171.37 66.792 171.126 66.8729C170.915 66.947 170.696 66.9878 170.475 66.9943C170.175 66.9944 169.877 66.9328 169.599 66.8128C169.315 66.6924 169.155 66.5711 169.117 66.4507L159.327 43.6313C158.385 41.7799 157.404 40.8543 156.386 40.8543C156.005 40.8551 155.636 40.9935 155.339 41.2469C155.019 41.5087 154.802 41.6797 154.689 41.7599L154.18 41.096C154.626 39.5793 155.506 38.2501 156.697 37.2963C157.923 36.2914 159.158 35.7883 160.402 35.7869C161.118 35.7869 161.749 36.29 162.296 37.2963C162.812 38.2331 163.256 39.2121 163.626 40.2242C163.964 41.1706 164.191 41.7845 164.305 42.066L172.223 60.8408L177.263 49.9103C177.301 49.79 177.461 49.3474 177.745 48.5825C178.017 47.8734 178.161 47.1155 178.169 46.3491C178.169 43.3705 176.66 41.1368 173.643 39.6479L177.829 33.7372C179.336 34.2565 180.505 35.1195 181.335 36.3263Z" fill="black"/>
<path d="M206.025 37.0469C207.615 37.8374 208.889 39.2071 209.617 40.9099L205.547 43.2647C204.942 42.3387 204.113 41.5035 203.058 40.759C202.056 40.0328 200.874 39.6438 199.664 39.6423C197.741 39.6423 196.063 40.1757 194.63 41.2424C193.197 42.3091 192.103 43.7477 191.35 45.5582C190.595 47.3695 190.218 49.3815 190.218 51.5945C190.218 54.7736 190.727 57.3592 191.745 59.3513C192.763 61.3433 194.364 62.3397 196.548 62.3404C199.639 62.3404 201.769 61.0126 202.939 58.357C204.109 55.7014 204.693 52.8034 204.692 49.663V46.9504L209.67 44.716V60.5904C209.672 61.1223 209.809 61.6438 210.065 62.0997C210.179 62.3273 210.351 62.516 210.561 62.644C210.771 62.7721 211.01 62.8344 211.252 62.8238C212.345 62.8238 213.344 62.0188 214.249 60.4089L215.098 61.3746C214.639 62.753 213.814 63.9592 212.725 64.8461C211.596 65.7925 210.466 66.2657 209.334 66.2657C207.713 66.2657 206.515 65.6219 205.743 64.3342C204.97 63.0465 204.583 61.3359 204.583 59.2024H204.47C203.526 61.3366 202.254 63.1176 200.652 64.5453C199.05 65.973 197.362 66.6872 195.589 66.6879C192.384 66.6879 189.962 65.5107 188.322 63.1563C186.681 60.8018 185.861 57.6516 185.861 53.7055C185.846 50.6308 186.524 47.5974 187.839 44.8616C189.158 42.1061 190.958 39.9026 193.241 38.2512C195.461 36.621 198.096 35.7571 200.791 35.7761C202.604 35.7679 204.394 36.2026 206.025 37.0469V37.0469Z" fill="black"/>
<path d="M226.529 35.7789H234.391L232.694 39.643H226.529V60.8929C226.529 61.4967 226.699 61.9892 227.039 62.3706C227.378 62.752 227.831 62.943 228.396 62.9437C229.188 62.9437 230.281 62.1592 231.677 60.59L232.468 61.4956C231.751 63.0254 230.894 64.1621 229.897 64.9059C228.899 65.6496 227.957 66.1126 227.069 66.2949C226.182 66.4757 225.739 66.4856 225.739 66.3244C225.797 66.3208 225.854 66.3109 225.909 66.2949C226.021 66.2705 226.135 66.2602 226.249 66.2643C222.93 66.2657 221.271 64.2335 221.271 60.1678V39.643H217.029L218.782 35.7789H221.271V21.894L226.529 19.7197V35.7789Z" fill="black"/>
<path d="M243.611 29.6797L241.742 30.4037L239.423 17.8435L245.532 15.6101L243.611 29.6797ZM245.477 60.8902C245.477 61.4939 245.619 61.9865 245.901 62.3679C246.184 62.751 246.594 62.941 247.118 62.941C247.533 62.941 247.994 62.7398 248.502 62.3373C249.011 61.9348 249.529 61.3514 250.058 60.5873L250.963 61.4929C250.096 63.2239 249.05 64.4514 247.824 65.1754C246.598 65.8995 245.478 66.2615 244.462 66.2615C243.104 66.2615 242.057 65.7989 241.322 64.8736C240.586 63.9483 240.218 62.3784 240.219 60.164V38.1879L245.479 36.0146L245.477 60.8902Z" fill="black"/>
<path d="M268.67 36.5008C265.842 38.4324 263.617 40.5855 261.996 42.9604C260.375 45.3352 259.564 48.1322 259.563 51.3514C259.563 53.1626 259.921 54.9837 260.638 56.8146C261.326 58.6057 262.436 60.176 263.862 61.3722C265.295 62.5796 267.009 63.1834 269.004 63.1834C270.626 63.1834 272.068 62.7809 273.331 61.9759C274.572 61.1957 275.589 60.0687 276.273 58.7166C276.976 57.3262 277.336 55.7681 277.319 54.1886C277.319 52.2971 276.782 50.3653 275.707 48.3929C274.64 46.4316 273.206 44.726 271.494 43.3826C269.758 42.0147 267.986 41.2501 266.176 41.089C267.034 40.1882 267.941 39.3423 268.892 38.5558C269.947 37.6714 271.021 36.8062 272.116 35.9604C274.718 36.8871 276.773 38.6463 278.281 41.2378C279.788 43.8294 280.544 46.7186 280.548 49.9054C280.552 52.7029 280.003 55.4698 278.936 58.0252C277.862 60.621 276.287 62.7337 274.213 64.3634C272.139 65.993 269.689 66.8079 266.863 66.8079C264.68 66.8221 262.533 66.214 260.644 65.0466C258.755 63.8791 257.192 62.1945 256.117 60.1668C255.023 58.1149 254.476 55.8411 254.477 53.3452C254.477 48.9594 255.693 45.1561 258.125 41.9355C260.557 38.7149 263.734 36.4811 267.655 35.2343L268.67 36.5008Z" fill="black"/>
<path d="M43.0765 25.0282C45.3583 27.1011 46.4992 30.2099 46.4992 34.3544C46.4992 37.0508 45.8109 39.5963 44.4343 41.9908C43.0577 44.3853 41.2384 46.4597 38.9764 48.2139C36.7614 49.9397 34.2691 51.2182 31.6227 51.9862L37.7887 60.0152C38.8811 61.1024 39.9746 61.6459 41.069 61.6459C41.9735 61.6459 42.8965 61.2836 43.838 60.5588C44.8671 59.7559 45.8341 58.8661 46.7296 57.8979L47.5782 58.6832C47.4272 58.8851 46.8519 59.7 45.8525 61.1277C44.9013 62.508 43.734 63.7028 42.4021 64.6593C41.0987 65.5874 39.8246 66.0515 38.5798 66.0515C37.525 66.0515 36.5163 65.6997 35.5537 64.996C34.5911 64.2924 33.5449 63.1757 32.4148 61.6459L25.6278 52.7715L25.967 51.1418C28.5252 50.8486 30.9992 49.9956 33.2347 48.6361C35.4978 47.3022 37.4278 45.408 38.8627 43.1128C40.2821 40.8668 41.0316 38.215 41.0126 35.5059C41.0126 32.4872 40.1555 30.0723 38.4414 28.2611C36.7272 26.4499 34.1916 25.5447 30.8345 25.5454C28.2323 25.5454 25.489 26.1994 22.6046 27.5075C19.7202 28.8156 17.2031 30.516 15.0531 32.6086L13.9781 31.3421C16.7307 28.6062 19.9454 26.3546 23.6222 24.587C27.2991 22.8194 30.8533 21.9339 34.2849 21.9303C37.8648 21.9226 40.7954 22.9552 43.0765 25.0282ZM22.6293 63.7537L17.4256 65.9882V32.7849L22.6293 30.6739V63.7537Z" fill="white"/>
<path d="M72.346 36.1076C73.7028 37.275 74.3816 39.0056 74.3822 41.2995C74.3822 43.1508 73.4487 45.2132 71.5816 47.4867C69.6337 49.8389 67.4315 51.9363 65.021 53.7352C62.5117 55.628 60.3717 56.9561 58.6008 57.7196C59.543 59.3296 60.6176 60.4463 61.8248 61.0697C63.0319 61.6931 64.4461 62.0052 66.0673 62.0059C67.877 62.0059 69.6775 61.5134 71.4688 60.5282C73.1887 59.6044 74.7029 58.2975 75.9091 56.6958L76.5876 57.9624C74.7415 60.4955 72.7808 62.4373 70.7054 63.7876C68.6299 65.1379 66.0844 65.812 63.0688 65.8099C60.7686 65.8099 58.7136 65.2061 56.9038 63.9987C55.1107 62.8112 53.6463 61.1353 52.6613 59.1435C51.6433 57.1105 51.1184 54.838 51.1344 52.533C51.1344 49.5551 51.8886 46.6575 53.3971 43.84C54.8561 41.0791 56.9117 38.7299 59.393 36.9879C61.8811 35.2379 64.5018 34.3625 67.255 34.3618C69.2915 34.3583 70.9886 34.9402 72.346 36.1076ZM59.8736 39.8503C58.5722 40.9762 57.5539 42.425 56.8188 44.1968C56.0921 45.9256 55.7163 47.7989 55.7161 49.6937C55.7161 52.1896 56.263 54.3227 57.3568 56.0931C58.9391 55.3289 60.6532 54.1718 62.4992 52.6216C64.2622 51.165 65.8414 49.4714 67.1976 47.5828C68.4793 45.7716 69.1201 44.1215 69.1201 42.6326C69.1201 39.6554 67.5177 38.1665 64.3129 38.1658C62.6931 38.1498 61.1204 38.7466 59.8736 39.8503V39.8503Z" fill="white"/>
<path d="M91.9395 33.1489C92.5243 33.6323 92.8167 34.3772 92.8167 35.3834C92.8167 36.4698 92.6189 37.4356 92.2233 38.2807C91.872 39.0509 91.4454 39.7794 90.9506 40.4539C90.499 41.0576 90.1973 41.4798 90.0457 41.7205C90.4986 42.5255 91.3471 43.4712 92.5912 44.5576C93.4527 45.3238 94.2651 46.1507 95.023 47.0327C95.6263 47.7582 96.1448 48.7341 96.5786 49.9606C97.0124 51.1871 97.2293 52.6862 97.2293 54.458C97.2293 56.5514 96.7863 58.4632 95.9002 60.1935C95.0439 61.8906 93.7734 63.309 92.2233 64.2983C90.6582 65.3038 88.8953 65.8069 86.9345 65.8076C85.7274 65.8076 84.4088 65.536 82.9788 64.9928C81.5488 64.4495 80.4939 63.6755 79.8142 62.6707L83.6038 57.2983C84.443 58.4733 85.4008 59.5461 86.4598 60.4975C87.4587 61.3827 88.5429 61.8253 89.7124 61.8253C91.333 61.8253 92.7175 61.2518 93.866 60.1048C95.0144 58.9579 95.5893 57.5794 95.5907 55.9695C95.5907 54.6818 95.0909 53.4039 94.0914 52.136C93.092 50.868 91.6873 49.3688 89.8776 47.6386C89.6521 47.438 89.2186 47.0257 88.5771 46.4015C88.0706 45.9264 87.5979 45.4117 87.163 44.8616L83.2072 51.0794L81.3975 49.8128L85.9229 43.1127C85.4088 41.6253 85.1411 40.0538 85.1317 38.4686C85.1317 36.739 85.49 35.3 86.2067 34.1516C86.9233 33.0033 87.9037 32.4298 89.1478 32.4312C90.4241 32.427 91.3547 32.6662 91.9395 33.1489ZM88.2063 35.2018C88.0744 35.4833 88.0085 35.9055 88.0085 36.4684C87.9946 37.1054 88.0905 37.7397 88.2913 38.3398C88.4792 38.8633 88.6111 39.2257 88.6869 39.4269C89.1016 39.1455 89.4883 38.6322 89.8469 37.887C90.2056 37.1418 90.3846 36.5085 90.3839 35.9871C90.3906 35.8262 90.3665 35.6656 90.3131 35.515C90.2597 35.3644 90.1782 35.227 90.0734 35.1111C89.8657 34.8901 89.5545 34.7796 89.1399 34.7796C88.6493 34.7796 88.3382 34.9204 88.2063 35.2018Z" fill="white"/>
<path d="M123.589 36.1076C124.947 37.275 125.626 39.0056 125.626 41.2995C125.626 43.1508 124.692 45.2132 122.826 47.4867C120.878 49.8391 118.675 51.9366 116.264 53.7352C113.759 55.628 111.619 56.9561 109.845 57.7196C110.787 59.3296 111.861 60.4463 113.069 61.0697C114.277 61.6931 115.691 62.0052 117.311 62.0059C119.121 62.0059 120.922 61.5134 122.713 60.5282C124.504 59.5431 125.984 58.2656 127.153 56.6958L127.832 57.9624C125.986 60.4955 124.025 62.4373 121.95 63.7876C119.874 65.1379 117.329 65.812 114.313 65.8099C112.013 65.8099 109.958 65.2061 108.148 63.9987C106.355 62.8112 104.891 61.1353 103.906 59.1435C102.888 57.1105 102.363 54.838 102.379 52.533C102.379 49.5551 103.133 46.6575 104.641 43.84C106.1 41.0791 108.155 38.7299 110.636 36.9879C113.126 35.2379 115.747 34.3625 118.499 34.3618C120.536 34.3583 122.232 34.9402 123.589 36.1076ZM111.118 39.8503C109.816 40.9762 108.798 42.425 108.063 44.1968C107.336 45.9254 106.96 47.7989 106.96 49.6937C106.96 52.1896 107.507 54.3227 108.6 56.0931C110.182 55.3289 111.896 54.1718 113.742 52.6216C115.506 51.1655 117.086 49.4718 118.442 47.5828C119.724 45.7716 120.365 44.1215 120.365 42.6326C120.365 39.6554 118.763 38.1665 115.557 38.1658C113.937 38.1497 112.365 38.7465 111.118 39.8503V39.8503Z" fill="white"/>
<path d="M144.968 42.269L144.798 42.0874C143.232 42.9783 141.482 43.4352 139.707 43.4163C139.14 43.428 138.572 43.3874 138.01 43.2949C137.467 43.1717 136.937 42.9896 136.428 42.7513L132.75 51.3862L130.658 50.3603L134.443 41.9069C133.274 40.8606 132.558 39.935 132.294 39.13L136.875 33.6415C137.449 35.1452 138.274 36.5258 139.308 37.7167C140.363 38.9439 141.532 39.5574 142.815 39.5574C145.001 39.5574 147.414 38.6719 150.055 36.9008L150.96 37.7452C148.697 40.322 146.83 42.9783 145.36 45.7141C143.89 48.4499 143.155 51.3475 143.154 54.407C143.154 56.2991 143.606 57.9091 144.512 59.2369C145.417 60.5647 146.756 61.2286 148.528 61.2286C149.659 61.2286 150.809 60.8064 151.978 59.962L152.6 60.8676C151.592 62.2668 150.332 63.4367 148.895 64.3085C147.515 65.1722 145.945 65.6303 144.346 65.6362C142.384 65.6362 140.961 64.902 140.075 63.4335C139.19 61.9649 138.747 60.1439 138.746 57.9703C138.746 55.4751 139.359 52.708 140.585 49.6689C141.81 46.6299 143.271 44.1632 144.968 42.269Z" fill="white"/>
<path d="M181.338 35.4492C182.168 36.6567 182.583 38.045 182.583 39.6141C182.573 40.549 182.468 41.4801 182.271 42.3911C182.098 43.2891 181.823 44.1611 181.451 44.9876L171.61 65.7542C171.533 65.8344 171.373 65.9149 171.129 65.9959C170.919 66.0697 170.699 66.1102 170.478 66.1162C170.178 66.1165 169.88 66.0553 169.601 65.9357C169.318 65.8143 169.158 65.694 169.12 65.5726L159.335 42.7531C158.392 40.9025 157.412 39.9769 156.394 39.9762C156.014 39.9777 155.645 40.116 155.348 40.3688C155.027 40.6316 154.811 40.8016 154.697 40.8818L154.188 40.2179C154.633 38.7012 155.514 37.3721 156.705 36.4181C157.93 35.4126 159.164 34.9095 160.41 34.9088C161.126 34.9088 161.757 35.4119 162.305 36.4181C162.82 37.355 163.264 38.334 163.634 39.346C163.973 40.2918 164.199 40.9053 164.312 41.1868L172.232 59.9575L177.265 49.0311C177.303 48.9094 177.463 48.4665 177.746 47.7023C178.019 46.9932 178.162 46.2353 178.17 45.4689C178.17 42.4917 176.662 40.2583 173.646 38.7687L177.831 32.8517C179.339 33.3752 180.508 34.241 181.338 35.4492Z" fill="white"/>
<path d="M206.028 36.1709C207.618 36.9628 208.891 38.3326 209.62 40.035L205.549 42.3887C204.945 41.4641 204.115 40.6292 203.06 39.8841C202.058 39.1578 200.876 38.7688 199.666 38.7674C197.743 38.7674 196.065 39.3004 194.632 40.3664C193.199 41.4324 192.105 42.8714 191.351 44.6833C190.597 46.4945 190.22 48.5066 190.22 50.7196C190.22 53.8994 190.729 56.4854 191.747 58.4774C192.765 60.4694 194.366 61.4655 196.549 61.4655C199.641 61.4655 201.771 60.1373 202.941 57.481C204.111 54.8247 204.695 51.9271 204.695 48.7881V46.0713L209.673 43.8379V59.7144C209.675 60.2464 209.811 60.7678 210.068 61.2238C210.182 61.4515 210.354 61.6404 210.564 61.7687C210.774 61.8969 211.013 61.9594 211.255 61.9489C212.349 61.9489 213.348 61.1439 214.253 59.5339L215.102 60.4997C214.643 61.8781 213.818 63.0843 212.728 63.9712C211.597 64.9169 210.466 65.3897 209.335 65.3897C207.714 65.3897 206.516 64.7459 205.744 63.4582C204.971 62.1705 204.584 60.4599 204.584 58.3265H204.471C203.527 60.4599 202.255 62.2409 200.653 63.6693C199.051 65.0977 197.363 65.8119 195.59 65.8119C192.385 65.8119 189.962 64.6347 188.323 62.2803C186.683 59.9259 185.862 56.7767 185.861 52.8327C185.846 49.7581 186.524 46.7247 187.839 43.9888C189.158 41.2326 190.958 39.0291 193.241 37.3783C195.461 35.7483 198.097 34.8845 200.792 34.9033C202.605 34.8938 204.396 35.3274 206.028 36.1709Z" fill="white"/>
<path d="M226.531 34.905H234.393L232.696 38.7691H226.531V60.018C226.531 60.6218 226.701 61.1143 227.041 61.4957C227.38 61.8771 227.832 62.0681 228.397 62.0688C229.189 62.0688 230.282 61.2839 231.679 59.714L232.47 60.6196C231.754 62.1501 230.897 63.2872 229.899 64.031C228.9 64.7747 227.957 65.2395 227.068 65.4252C226.182 65.6068 225.739 65.617 225.739 65.4559C225.797 65.4523 225.854 65.442 225.909 65.4252C226.021 65.4018 226.135 65.3919 226.249 65.3957C222.93 65.3957 221.271 63.3632 221.271 59.2982V38.7691H217.029L218.782 34.905H221.272V21.0202L226.532 18.8469L226.531 34.905Z" fill="white"/>
<path d="M243.612 28.8053L241.742 29.5304L239.423 16.9702L245.532 14.7368L243.612 28.8053ZM245.478 60.0159C245.478 60.6196 245.62 61.1121 245.902 61.4935C246.185 61.8756 246.59 62.0667 247.119 62.0667C247.533 62.0667 247.994 61.8654 248.503 61.4629C249.012 61.0604 249.531 60.4767 250.059 59.7119L250.964 60.6175C250.096 62.3485 249.049 63.576 247.825 64.3C246.601 65.0241 245.48 65.3865 244.463 65.3872C243.106 65.3872 242.059 64.9242 241.324 63.9982C240.588 63.0722 240.22 61.5027 240.221 59.2897V37.3178L245.481 35.1445L245.478 60.0159Z" fill="white"/>
<path d="M268.672 35.6294C265.844 37.5617 263.619 39.7149 261.997 42.089C260.375 44.4631 259.564 47.2601 259.565 50.4801C259.565 52.2913 259.923 54.1127 260.64 55.9443C261.327 57.7354 262.438 59.3057 263.864 60.5018C265.297 61.7093 267.013 62.313 269.011 62.313C270.633 62.313 272.075 61.9105 273.338 61.1056C274.579 60.3255 275.596 59.198 276.279 57.8452C276.982 56.4552 277.342 54.8975 277.325 53.3182C277.325 51.4268 276.788 49.4949 275.713 47.5226C274.647 45.5604 273.213 43.8546 271.5 42.5122C269.765 41.1443 267.993 40.3795 266.183 40.2176C267.04 39.3168 267.947 38.4709 268.898 37.6845C269.953 36.8 271.027 35.9348 272.122 35.089C274.724 36.0151 276.779 37.7742 278.288 40.3664C279.796 42.9587 280.55 45.8465 280.55 49.0298C280.554 51.8274 280.004 54.5943 278.937 57.1496C277.863 59.7454 276.289 61.8564 274.215 63.4825C272.141 65.1087 269.691 65.9263 266.864 65.9354C264.682 65.949 262.535 65.3407 260.646 64.1733C258.757 63.0058 257.193 61.3216 256.118 59.2944C255.024 57.2418 254.477 54.968 254.477 52.4728C254.477 48.0862 255.693 44.283 258.126 41.0631C260.559 37.8431 263.735 35.6094 267.656 34.3618L268.672 35.6294Z" fill="white"/>
</svg>
