<svg width="29" height="27" viewBox="0 0 29 27" fill="none" xmlns="http://www.w3.org/2000/svg">
<path fill-rule="evenodd" clip-rule="evenodd" d="M16.6711 23.5154C19.1155 23.3366 21.628 23.4471 24.0629 23.5692C24.5871 23.597 25.0196 23.9688 24.9909 24.3925C24.9989 24.8223 24.5702 25.147 24.0829 25.125C21.7231 25.005 19.2872 24.8906 16.9566 25.0662C16.4596 25.1056 15.9805 24.7888 15.8968 24.36C15.813 23.9314 16.1741 23.5552 16.6711 23.5154Z" fill="#FF8214"/>
<path fill-rule="evenodd" clip-rule="evenodd" d="M10.743 14.6147C15.0421 11.9987 19.7554 9.87123 23.9943 7.15753C24.3743 6.90159 24.9664 6.97757 25.2898 7.32287C25.6132 7.66847 25.574 8.15817 25.1572 8.40833C20.9168 11.1315 16.202 13.2681 11.9014 15.8936C11.4858 16.1364 10.8957 16.0482 10.5736 15.6947C10.2883 15.3472 10.3273 14.8575 10.743 14.6147Z" fill="#FF8214"/>
<path fill-rule="evenodd" clip-rule="evenodd" d="M5.56838 1.14714C5.16952 2.96781 4.77088 4.78851 4.37198 6.60948C4.30594 7.03049 3.81255 7.28617 3.29989 7.18478C2.78727 7.08309 2.47521 6.66695 2.5413 6.24563C2.94063 4.42191 3.3397 2.59845 3.73899 0.775033C3.84187 0.359806 4.33478 0.106243 4.84707 0.210077C5.3225 0.308131 5.67121 0.732215 5.56838 1.14714Z" fill="#FF8214"/>
</svg>
